<?xml version="1.0" encoding="utf-8"?>
<!-- Generator: Adobe Illustrator 21.1.0, SVG Export Plug-In . SVG Version: 6.00 Build 0)  -->
<svg version="1.1" id="Capa_1" xmlns="http://www.w3.org/2000/svg" xmlns:xlink="http://www.w3.org/1999/xlink" x="0px" y="0px"
	 viewBox="0 0 323.5 323.5" style="enable-background:new 0 0 323.5 323.5;" xml:space="preserve">
<style type="text/css">
	.st0{fill:#FFFFFF;stroke:#BAF1F7;stroke-width:4;stroke-miterlimit:10;}
</style>
<g>
	<g>
		<g>
			<path class="st0" d="M286.9,256c-27.1-0.3-53.4-9-75.4-24.9c-43.3-31.3-59.4-88.3-38.7-137.6c10.5-25,28.4-46.2,51.4-60.6
				c1.1-0.7,1.9-1.8,2.1-3c0.5-2.4-1.1-4.8-3.6-5.3C200.6,20,177.7,20.8,156,27l0,0c-21.6,6.1-41.5,17.3-57.9,32.7
				c-56.4,53-59.2,141.6-6.2,198c53,56.4,141.6,59.2,198,6.2c0.9-0.8,1.4-2,1.4-3.2C291.3,258.1,289.4,256.1,286.9,256z
				 M258.5,275.9c-18.3,10.3-38.7,16.1-59.7,16.8c-72.3,2.6-133-54-135.6-126.3s54-133,126.3-135.6c6.8-0.2,13.7,0.1,20.5,0.9
				c-20.1,15-35.8,35.2-45.4,58.4c-22.3,53.1-5.1,114.6,41.6,148.3c20.3,14.8,44.3,23.8,69.3,26
				C270.1,268.7,264.4,272.5,258.5,275.9z"/>
			<path class="st0" d="M218.3,161.6l-0.3,0.2c-3.4,2.3-4.8,6.5-3.7,10.4l3.3,11.5l-6.1,10.2c0,0,0,0,0,0
				c-2.6,4.4-1.1,10.1,3.3,12.7c1.4,0.8,3.1,1.3,4.7,1.3l11.6,0.4l7.8,8.9c0,0,0.1,0.1,0.1,0.1c3.5,3.8,9.3,4,13.1,0.6
				c0.6-0.5,1.1-1.1,1.6-1.7c0.4-0.6,0.8-1.3,1.1-2l4.1-11l10.8-4.7c0.8-0.4,1.6-0.8,2.2-1.4c4-3.3,4.5-9.2,1.2-13.2
				c-0.6-0.7-1.2-1.2-1.9-1.7l-8.8-6.9l-1-11.7c-0.1-1.6-0.7-3.2-1.6-4.5c-2.9-4.2-8.7-5.3-12.9-2.4l-9.8,6.6l-11.6-2.8
				C222.8,159.8,220.4,160.3,218.3,161.6z M240.3,171.8l11.4-7.7l0.1-0.1h0.2h0.2c0,0.1,0,0.1,0,0.2l1.3,13.9
				c0.1,1.2,0.7,2.4,1.7,3.2l10.4,8.1l0,0.2c0,0.1,0,0.2,0,0.2l-12.7,5.5c-1.1,0.5-2,1.4-2.5,2.6l-4.6,12.7v0.2h-0.2h-0.2l-9.1-10.4
				c-0.8-0.9-2-1.5-3.3-1.5l-13.6-0.5h-0.4c0-0.1,0-0.2,0-0.2l6.9-11.5c0.8-1.1,1.1-2.6,0.7-3.9l-3.7-13v-0.3h0.3l13.2,3
				C237.8,172.7,239.2,172.5,240.3,171.8z"/>
			<path class="st0" d="M241.4,72.5l5.3,5l0.2,6.9v0.2c0,0.3,0,0.5,0,0.8c0,0.3,0.1,0.7,0.2,1v0.3c0.2,0.6,0.5,1.2,0.8,1.8
				c2.1,3.6,6.7,4.9,10.4,2.9l0.4-0.2l6.5-3.9l6.9,2c0.6,0.2,1.2,0.3,1.8,0.3c0.6,0.1,1.2,0.1,1.8,0h0.3c4.2-0.8,6.9-4.9,6.1-9
				l-1.6-7.2l3.9-5.8l0.2-0.3l0.3-0.5c0.2-0.4,0.4-0.8,0.6-1.2c0.3-0.7,0.4-1.4,0.5-2.1c0.3-4.3-2.9-8-7.1-8.3l-7.3-0.7l-4.5-5.8
				l-0.1-0.3c-0.3-0.4-0.6-0.7-0.9-1l-0.4-0.4c-0.5-0.4-1.1-0.7-1.7-1c0,0,0,0,0,0c-3.9-1.7-8.5,0.1-10.2,4.1l-2.9,6.9l-6.5,2.4
				c-0.7,0.2-1.3,0.5-1.9,0.9c-0.6,0.4-1.2,0.9-1.7,1.5C237.9,64.7,238.2,69.6,241.4,72.5z M255.8,64.8c1.2-0.4,2.1-1.3,2.6-2.5
				l2.8-6.6l4.4,5.6c0.8,1,1.9,1.5,3.2,1.6l7.2,0.7l-4,6c-0.7,1-0.9,2.3-0.7,3.5l1.6,6.9l-6.9-2c-1.3-0.4-2.7-0.1-3.8,0.6l-6.1,3.5
				l-0.2-7.1c0-1.3-0.6-2.4-1.6-3.3l-5.3-4.5L255.8,64.8z"/>
			<path class="st0" d="M75.6,265.2c-0.6-0.4-1.2-0.7-1.9-0.9l-6.5-2.4l-2.9-6.9c-1.7-3.7-6.1-5.5-9.9-3.9c-0.6,0.3-1.2,0.6-1.7,1
				l-0.4,0.4c-0.3,0.3-0.7,0.6-0.9,1h-0.2l-4.5,5.8l-7.3,0.7c-4.3,0.3-7.4,4-7.1,8.3c0.1,0.7,0.2,1.4,0.5,2.1
				c0.1,0.4,0.3,0.8,0.6,1.2l0.3,0.5l0.2,0.3l3.9,5.8l-1.6,7.2c-0.9,4.2,1.7,8.3,5.9,9.2h0.3c0.6,0.1,1.2,0.1,1.8,0
				c0.6,0,1.2-0.1,1.8-0.3l6.9-2l6.3,3.8l0.4,0.2c3.7,2,8.3,0.7,10.4-2.9c0.3-0.6,0.6-1.1,0.8-1.8v-0.3c0.1-0.3,0.1-0.6,0.2-1
				c0-0.3,0-0.5,0-0.8v-0.2l0.2-6.9l5.6-4.9c3.2-2.9,3.5-7.8,0.7-11C76.8,266,76.2,265.6,75.6,265.2z M63.8,277
				c-1,0.8-1.5,2-1.6,3.3l-0.2,7.2l-5.9-3.5c-1.1-0.8-2.5-1-3.8-0.6l-6.9,2l1.6-6.9c0.3-1.2,0-2.4-0.7-3.5l-4-6l7.2-0.7
				c1.3-0.2,2.4-0.9,3.1-1.9l4.4-5.6l2.8,6.6c0.5,1.2,1.4,2.1,2.6,2.5l6.8,2.5L63.8,277z"/>
		</g>
	</g>
</g>
</svg>
