<?xml version="1.0" encoding="utf-8"?>
<!-- Generator: Adobe Illustrator 21.1.0, SVG Export Plug-In . SVG Version: 6.00 Build 0)  -->
<svg version="1.1" id="Layer_1" xmlns="http://www.w3.org/2000/svg" xmlns:xlink="http://www.w3.org/1999/xlink" x="0px" y="0px"
	 viewBox="0 0 37.2 37.2" style="enable-background:new 0 0 37.2 37.2;" xml:space="preserve">
<style type="text/css">
	.st0{fill:#FFFFFF;stroke:#FFB83B;stroke-width:0.75;stroke-miterlimit:10;}
</style>
<path class="st0" d="M2.6,18.6c0-0.4,0.1-0.7,0.4-0.9c0.3-0.2,0.6-0.4,0.9-0.4h3.1c0.3,0,0.6,0.1,0.9,0.4c0.2,0.3,0.3,0.6,0.3,0.9
	S8,19.2,7.8,19.5c-0.2,0.3-0.5,0.4-0.9,0.4H3.8c-0.3,0-0.6-0.1-0.9-0.4C2.7,19.2,2.6,18.9,2.6,18.6z M6.9,29c0-0.3,0.1-0.6,0.3-0.9
	L9.4,26c0.2-0.2,0.5-0.3,0.9-0.3c0.4,0,0.7,0.1,0.9,0.3c0.2,0.2,0.4,0.5,0.4,0.9c0,0.4-0.1,0.7-0.4,1l-2.1,2.1
	c-0.6,0.5-1.2,0.5-1.9,0C7,29.7,6.9,29.4,6.9,29z M6.9,8.1c0-0.3,0.1-0.6,0.3-0.9c0.3-0.3,0.6-0.4,1-0.4c0.3,0,0.6,0.1,0.9,0.4
	l2.2,2.2c0.2,0.2,0.4,0.5,0.4,0.9c0,0.4-0.1,0.7-0.4,0.9c-0.2,0.2-0.5,0.4-0.9,0.4c-0.4,0-0.7-0.1-0.9-0.4L7.2,9.1
	C7,8.8,6.9,8.5,6.9,8.1z M10.7,18.6c0-1.4,0.3-2.7,1.1-3.9s1.7-2.2,2.9-2.9c1.2-0.7,2.5-1.1,3.9-1.1c1.1,0,2.1,0.2,3,0.6
	c1,0.4,1.8,1,2.5,1.7c0.7,0.7,1.3,1.5,1.7,2.5s0.6,2,0.6,3c0,1.4-0.3,2.7-1.1,3.9c-0.7,1.2-1.7,2.2-2.9,2.9
	c-1.2,0.7-2.5,1.1-3.9,1.1c-1.4,0-2.7-0.3-3.9-1.1s-2.2-1.7-2.9-2.9C11.1,21.3,10.7,20,10.7,18.6z M13.3,18.6c0,1.5,0.5,2.7,1.6,3.8
	c1,1,2.3,1.6,3.8,1.6s2.7-0.5,3.8-1.6c1-1,1.6-2.3,1.6-3.8c0-1.4-0.5-2.7-1.6-3.7c-1-1-2.3-1.5-3.8-1.5c-1.5,0-2.7,0.5-3.7,1.5
	C13.8,15.9,13.3,17.1,13.3,18.6z M17.3,30.3c0-0.4,0.1-0.7,0.4-0.9c0.3-0.2,0.6-0.4,0.9-0.4c0.4,0,0.7,0.1,0.9,0.4
	c0.2,0.2,0.4,0.5,0.4,0.9v3c0,0.4-0.1,0.7-0.4,0.9s-0.6,0.4-0.9,0.4s-0.7-0.1-0.9-0.4c-0.3-0.3-0.4-0.6-0.4-0.9
	C17.3,33.3,17.3,30.3,17.3,30.3z M17.3,6.9V3.8c0-0.3,0.1-0.6,0.4-0.9s0.6-0.4,0.9-0.4s0.6,0.1,0.9,0.4s0.4,0.6,0.4,0.9v3.1
	c0,0.3-0.1,0.6-0.4,0.9c-0.3,0.2-0.6,0.3-0.9,0.3S17.9,8,17.7,7.8C17.5,7.6,17.3,7.3,17.3,6.9z M25.6,26.8c0-0.3,0.1-0.6,0.3-0.8
	c0.2-0.2,0.5-0.3,0.8-0.3c0.4,0,0.7,0.1,0.9,0.3l2.2,2.2c0.2,0.3,0.4,0.6,0.4,0.9c0,0.3-0.1,0.6-0.4,0.9c-0.6,0.5-1.2,0.5-1.8,0
	L26,27.8C25.8,27.5,25.6,27.2,25.6,26.8z M25.6,10.3c0-0.4,0.1-0.7,0.3-0.9l2.1-2.2C28.4,7,28.7,6.9,29,6.9c0.4,0,0.7,0.1,0.9,0.4
	c0.3,0.3,0.4,0.6,0.4,0.9c0,0.4-0.1,0.7-0.4,0.9l-2.2,2.2c-0.3,0.2-0.6,0.4-0.9,0.4c-0.3,0-0.6-0.1-0.8-0.4S25.6,10.7,25.6,10.3z
	 M29,18.6c0-0.4,0.1-0.7,0.4-0.9c0.2-0.2,0.5-0.4,0.9-0.4h3c0.3,0,0.6,0.1,0.9,0.4c0.3,0.3,0.4,0.6,0.4,0.9s-0.1,0.6-0.4,0.9
	c-0.3,0.3-0.6,0.4-0.9,0.4h-3c-0.3,0-0.6-0.1-0.9-0.4S29,18.9,29,18.6z"/>
</svg>
