<?xml version="1.0" encoding="utf-8"?>
<!-- Generator: Adobe Illustrator 21.1.0, SVG Export Plug-In . SVG Version: 6.00 Build 0)  -->
<svg version="1.1" id="Capa_1" xmlns="http://www.w3.org/2000/svg" xmlns:xlink="http://www.w3.org/1999/xlink" x="0px" y="0px"
	 viewBox="0 0 327.3 327.3" style="enable-background:new 0 0 327.3 327.3;" xml:space="preserve">
<style type="text/css">
	.st0{fill:#FFFFFF;stroke:#CCCCCA;stroke-width:4;stroke-miterlimit:10;}
</style>
<g>
	<path class="st0" d="M287.8,192.7c6.4-9.2,9.9-20.1,9.9-31.4c0-16.1-7.3-31.6-19.7-41.9c0.4-3.2,0.6-6.2,0.6-9.2
		c0-40.7-33.1-73.7-73.7-73.7c-24.3,0-47.2,12.2-60.9,32.2c-6.9-3.5-14.5-5.4-22.3-5.4c-25.2,0-46,19.3-48.4,44.1
		c-26.1,4.5-45.3,26.8-45.3,53.8c0,25.8,18.3,47.8,42.8,53.3c-3.5,7-5.5,14.9-5.5,23.3c0,29.1,23.7,52.9,52.8,52.9h118.8
		c1.9,0,3.8-0.1,5.6-0.3c32.1-3.1,56.3-29.8,56.3-62C299.1,215.1,294.9,202.8,287.8,192.7z M77.1,205c-21.7-2.8-38.3-21.5-38.3-43.6
		c0-23,17.3-41.8,40.2-43.8l4.9-0.6V112c0-21,17-38,38-38c7.5,0,14.8,2.2,21,6.4l4.7,3.1l2.8-4.9c11.3-19.4,32.2-31.5,54.5-31.5
		c34.8,0,63.1,28.3,63.1,63.1c0,3.3-0.3,6.7-1,10.5l-0.5,3.2l2.6,1.9c11.4,8.4,17.9,21.3,17.9,35.4c0,8.1-2.2,16-6.4,22.9
		c-5.7-5.7-12.3-10.1-19.5-13.2c-0.1,0-0.2-0.1-0.3-0.1c-1.6-0.7-3.2-1.2-4.9-1.8c-0.3-0.1-0.6-0.2-0.9-0.3c-1.5-0.5-3-0.8-4.5-1.2
		c-0.5-0.1-1-0.3-1.5-0.4c-1.5-0.3-3-0.5-4.4-0.7c-0.6-0.1-1.1-0.2-1.7-0.3c-2.1-0.2-4.2-0.3-6.3-0.3h-1
		c-11.8-16.9-30.9-26.9-51.7-26.9c-28.3,0-53.2,19.1-60.8,45.9h-5c-1.9,0-3.9,0.1-5.8,0.3c-0.4,0-0.9,0.1-1.3,0.2
		c-1.5,0.2-3,0.4-4.4,0.8c-0.5,0.1-0.9,0.2-1.3,0.3c-1.4,0.4-2.8,0.8-4.2,1.2c-0.4,0.1-0.9,0.3-1.3,0.5c-1.4,0.5-2.7,1-4,1.7
		c-0.4,0.2-0.8,0.4-1.2,0.6c-1.3,0.7-2.6,1.4-3.8,2.1c-0.4,0.2-0.8,0.5-1.1,0.7c-1.3,0.8-2.5,1.7-3.8,2.7c-0.3,0.2-0.6,0.4-0.8,0.6
		c-3,2.4-5.7,5.1-8.1,8.1C77.2,204.8,77.1,204.9,77.1,205z M241.7,279.8c-1.5,0.2-3,0.3-4.5,0.3H118.4c-23.3,0-42.2-18.9-42.2-42.2
		c0-8.7,2.6-16.7,7.1-23.5l0.3-0.4c0.2-0.3,0.4-0.5,0.6-0.8c0.8-1.1,1.7-2.2,2.6-3.3c0.2-0.3,0.5-0.5,0.7-0.8c0.9-1,1.9-1.9,2.8-2.8
		c0.2-0.2,0.4-0.4,0.6-0.5c2.5-2.1,5.2-3.9,8-5.4c0.1,0,0.2-0.1,0.3-0.1c1.3-0.7,2.6-1.3,4-1.8c0.3-0.1,0.6-0.2,0.9-0.3
		c1.2-0.4,2.4-0.8,3.6-1.1c0.4-0.1,0.7-0.2,1.1-0.3c1.2-0.3,2.4-0.5,3.6-0.7c0.4-0.1,0.8-0.1,1.1-0.2c1.6-0.2,3.2-0.3,4.8-0.3h13.5
		l0.9-4.2c5-24.2,26.7-41.7,51.4-41.7c18.1,0,34.6,9.1,44.3,24.5l1.6,2.5h6.7c1.9,0,3.7,0.1,5.6,0.3c0.6,0.1,1.2,0.2,1.9,0.3
		c1.2,0.2,2.4,0.4,3.5,0.6c0.8,0.2,1.5,0.4,2.3,0.6c1,0.3,2,0.5,3,0.8c0.8,0.3,1.6,0.6,2.4,0.9c0.9,0.3,1.7,0.7,2.6,1.1
		c0.8,0.4,1.6,0.8,2.4,1.2c0.8,0.4,1.6,0.9,2.4,1.3c0.8,0.4,1.5,0.9,2.2,1.4c0.8,0.5,1.6,1.1,2.4,1.7c0.6,0.5,1.3,0.9,1.9,1.4
		c1.1,0.9,2.2,1.9,3.2,2.8c0.3,0.2,0.5,0.5,0.8,0.7c1.3,1.3,2.5,2.7,3.7,4.1c7.2,8.9,11.6,20.2,11.6,32.5
		C288.4,255.2,268.4,277.3,241.7,279.8z"/>
</g>
</svg>
