<?xml version="1.0" encoding="utf-8"?>
<!-- Generator: Adobe Illustrator 21.1.0, SVG Export Plug-In . SVG Version: 6.00 Build 0)  -->
<svg version="1.1" id="Capa_1" xmlns="http://www.w3.org/2000/svg" xmlns:xlink="http://www.w3.org/1999/xlink" x="0px" y="0px"
	 viewBox="0 0 288.4 288.4" style="enable-background:new 0 0 288.4 288.4;" xml:space="preserve">
<style type="text/css">
	.st0{fill:#FFFFFF;stroke:#7F7F7F;stroke-width:5;stroke-miterlimit:10;}
</style>
<g>
	<path class="st0" d="M205.5,55.8H75.7c-3.2,0-5.8-2.6-5.8-5.8c0-3.2,2.6-5.8,5.8-5.8h129.8c3.2,0,5.8,2.6,5.8,5.8
		C211.3,53.2,208.7,55.8,205.5,55.8z M244.6,76.9c0-3.2-2.6-5.8-5.8-5.8H20.6c-3.2,0-5.8,2.6-5.8,5.8c0,3.2,2.6,5.8,5.8,5.8h218.2
		C242,82.7,244.6,80.1,244.6,76.9z M211.3,103.8c0-3.2-2.6-5.8-5.8-5.8H21.3c-3.2,0-5.8,2.6-5.8,5.8c0,3.2,2.6,5.8,5.8,5.8h184.1
		C208.7,109.6,211.3,107,211.3,103.8z M273.6,130.7c0-3.2-2.6-5.8-5.8-5.8H83.7c-3.2,0-5.8,2.6-5.8,5.8c0,3.2,2.6,5.8,5.8,5.8h184.1
		C271,136.5,273.6,133.9,273.6,130.7z M262,157.7c0-3.2-2.6-5.8-5.8-5.8H46c-3.2,0-5.8,2.6-5.8,5.8c0,3.2,2.6,5.8,5.8,5.8h210.2
		C259.4,163.5,262,160.9,262,157.7z M243.1,184.6c0-3.2-2.6-5.8-5.8-5.8H19.9c-3.2,0-5.8,2.6-5.8,5.8c0,3.2,2.6,5.8,5.8,5.8h217.5
		C240.6,190.4,243.1,187.8,243.1,184.6z M274.3,211.5c0-3.2-2.6-5.8-5.8-5.8H98.9c-3.2,0-5.8,2.6-5.8,5.8c0,3.2,2.6,5.8,5.8,5.8
		h169.6C271.7,217.3,274.3,214.7,274.3,211.5z M260.5,238.4c0-3.2-2.6-5.8-5.8-5.8H83.7c-3.2,0-5.8,2.6-5.8,5.8
		c0,3.2,2.6,5.8,5.8,5.8h171.1C258,244.2,260.5,241.6,260.5,238.4z"/>
</g>
</svg>
