<?xml version="1.0" encoding="utf-8"?>
<!-- Generator: Adobe Illustrator 21.1.0, SVG Export Plug-In . SVG Version: 6.00 Build 0)  -->
<svg version="1.1" id="Capa_1" xmlns="http://www.w3.org/2000/svg" xmlns:xlink="http://www.w3.org/1999/xlink" x="0px" y="0px"
	 viewBox="0 0 512 512" style="enable-background:new 0 0 512 512;" xml:space="preserve">
<style type="text/css">
	.st0{fill:#FFFFFF;stroke:#9B9B9B;stroke-width:7;stroke-miterlimit:10;}
	.st1{fill:#FFFFFF;stroke:#00B7E2;stroke-width:7;stroke-linecap:round;stroke-linejoin:round;stroke-miterlimit:10;}
</style>
<g>
	<g>
		<g>
			<path class="st0" d="M238.7,284.3c-10.5-2.2-20.8,4.4-23.1,14.9l-29.1,135.9c-2.2,10.5,4.4,20.8,14.9,23.1
				c1.4,0.3,2.7,0.4,4.1,0.4c9,0,17-6.2,19-15.4l29.1-135.9C255.9,296.9,249.2,286.6,238.7,284.3z"/>
			<path class="st0" d="M169.8,284.3c-10.5-2.2-20.8,4.4-23.1,14.9l-29.1,135.9c-2.2,10.5,4.4,20.8,14.9,23.1
				c1.4,0.3,2.7,0.4,4.1,0.4c9,0,17-6.2,19-15.4l29.1-135.9C187,296.9,180.3,286.6,169.8,284.3z"/>
			<path class="st0" d="M307.6,284.3c-10.5-2.2-20.8,4.4-23.1,14.9l-29.1,135.9c-2.2,10.5,4.4,20.8,14.9,23.1
				c1.4,0.3,2.7,0.4,4.1,0.4c9,0,17-6.2,19-15.4l29.1-135.9C324.8,296.9,318.1,286.6,307.6,284.3z"/>
			<path class="st0" d="M456,176.8v-12.9c0-73-59.4-132.3-132.3-132.3c-31.8,0-62.5,11.4-86.5,32.2c-15.9,13.7-28.2,30.9-36,50.1
				c-12-6.2-25.5-9.5-39.3-9.5c-47.6,0-86.4,38.8-86.4,86.4v17.7c-38.8,8.7-67.9,43.2-67.9,84.3c0,42.1,29.6,77.9,70.4,85.1
				c1.1,0.2,2.3,0.3,3.4,0.3c9.3,0,17.4-6.6,19.1-16.1c1.9-10.6-5.2-20.6-15.8-22.5c-22.2-3.9-38.3-23.6-38.3-46.9
				c0-26.2,21.7-47.6,48.4-47.6h0.1c10.7,0,19.4-8.7,19.4-19.4v-34.9c0-26.2,21.3-47.6,47.6-47.6c13.6,0,26.6,5.9,35.7,16.1
				c5,5.6,12.8,7.9,20,5.8c7.2-2.1,12.6-8.2,13.7-15.7c7-45.1,46.7-79,92.4-79c51.6,0,93.5,41.9,93.5,93.5v23.9
				c0,7.2,4,13.8,10.3,17.1c23.6,12.5,38.2,36.8,38.2,63.5c0,25.6-13.8,49.4-35.9,62.2c-1.2,0.7-2.5,1.4-3.8,2
				c-9.6,4.8-13.5,16.5-8.7,26.1s16.5,13.5,26.1,8.7c2-1,3.9-2,5.8-3.1c34.1-19.7,55.3-56.5,55.3-95.8
				C504.5,231.3,486.2,197.2,456,176.8z"/>
			<path class="st0" d="M376.6,284.3c-10.5-2.2-20.8,4.4-23.1,14.9l-29.1,135.9c-2.2,10.5,4.4,20.8,14.9,23.1
				c1.4,0.3,2.7,0.4,4.1,0.4c9,0,17-6.2,19-15.4l29.1-135.9C393.7,296.9,387,286.6,376.6,284.3z"/>
		</g>
	</g>
</g>
<path class="st1" d="M147.6,295.2c4.5-8.6,14.2-13.1,23.4-10.9c8.6,2,15,9.5,15.9,18.5c-10.9,48.3-21.9,96.7-32.8,145
	c-4.4,8-14,12.3-23.2,10.4c-9.9-2-17-10.6-16.5-20.3C125.4,390.4,136.5,342.8,147.6,295.2z"/>
<path class="st1" d="M217.1,295.3c4.5-8.6,14.2-13.1,23.4-10.9c8.6,2,15,9.5,15.9,18.5c-10.9,48.3-21.9,96.7-32.8,145
	c-4.4,8-14,12.3-23.2,10.4c-9.9-2-17-10.6-16.5-20.3C194.9,390.4,206,342.9,217.1,295.3z"/>
<path class="st1" d="M286,295.3c4.5-8.6,14.2-13.1,23.4-10.9c8.6,2,15,9.5,15.9,18.5c-10.9,48.3-21.9,96.7-32.8,145
	c-4.4,8-14,12.3-23.2,10.4c-9.9-2-17-10.6-16.5-20.3C263.8,390.4,274.9,342.9,286,295.3z"/>
<path class="st1" d="M354.9,295.3c4.5-8.6,14.2-13.1,23.4-10.9c8.6,2,15,9.5,15.9,18.5c-10.9,48.3-21.9,96.7-32.8,145
	c-4.4,8-14,12.3-23.2,10.4c-9.9-2-17-10.6-16.5-20.3C332.8,390.4,343.8,342.9,354.9,295.3z"/>
</svg>
