<?xml version="1.0" encoding="utf-8"?>
<!-- Generator: Adobe Illustrator 21.1.0, SVG Export Plug-In . SVG Version: 6.00 Build 0)  -->
<svg version="1.1" id="Capa_1" xmlns="http://www.w3.org/2000/svg" xmlns:xlink="http://www.w3.org/1999/xlink" x="0px" y="0px"
	 viewBox="0 0 512 512" style="enable-background:new 0 0 512 512;" xml:space="preserve">
<style type="text/css">
	.st0{fill:#FFFFFF;stroke:#BCBCBB;stroke-width:7;stroke-miterlimit:10;}
	.st1{fill:#FFFFFF;stroke:#2FA5ED;stroke-width:7;stroke-miterlimit:10;}
	.st2{fill:none;stroke:#67F2F9;stroke-width:7;stroke-miterlimit:10;}
</style>
<g>
	<g>
		<path class="st0" d="M404.3,150.2c-14.1-70-75.4-121-148.3-121c-60.5,0-114.9,36-138.7,90.8C60.1,121.3,14,168.2,14,225.8
			c0,58.4,47.5,105.9,105.9,105.9h287.4c50,0,90.8-40.7,90.8-90.8C498,189.8,457.2,149.1,404.3,150.2z M407.3,301.4H119.9
			c-41.7,0-75.6-33.9-75.6-75.6c0-41.7,33.9-75.6,75.6-75.6c1.2,0,3.2,0,3.9,0.2c7.7,2,15.4-2.3,18-9.7
			C158.6,92,204.5,59.4,256,59.4c62.4,0,114.2,46.8,120.5,108.9c0.4,4.2,2.6,8,6,10.6c3.4,2.5,7.7,3.5,11.9,2.8
			c4-0.8,8.5-1.3,12.9-1.3c33.4,0,60.5,27.1,60.5,60.5S440.6,301.4,407.3,301.4z"/>
	</g>
</g>
<g>
	<g>
		<path class="st1" d="M162.6,368.4c-5.7-8.2-19.2-8.2-24.9,0c-9.9,14.3-32.9,49.8-32.9,69.1c0,25,20.4,45.4,45.4,45.4
			s45.4-20.4,45.4-45.4C195.5,418.2,172.5,382.7,162.6,368.4z M150.1,452.6c-8.3,0-15.1-6.8-15.1-15.1c0.1-4.6,6.4-17.8,15.1-32.5
			c8.7,14.7,15,27.8,15.1,32.5C165.3,445.8,158.4,452.6,150.1,452.6z"/>
	</g>
</g>
<g>
	<g>
		<path class="st2" d="M331.6,361.9c-8.3,0-15.1,6.8-15.1,15.1v90.8c0,8.3,6.8,15.1,15.1,15.1s15.1-6.8,15.1-15.1V377
			C346.8,368.7,340,361.9,331.6,361.9z"/>
	</g>
</g>
<g>
	<g>
		<path class="st2" d="M378.5,432l-78.6-45.4c-7.2-4.1-16.5-1.7-20.7,5.5c-4.2,7.2-1.7,16.5,5.5,20.7l78.6,45.4c2.4,1.4,5,2,7.6,2
			c5.2,0,10.3-2.7,13.1-7.6C388.2,445.4,385.7,436.1,378.5,432z"/>
	</g>
</g>
<g>
	<g>
		<path class="st2" d="M384,392.1c-4.2-7.3-13.5-9.7-20.7-5.5L284.8,432c-7.3,4.2-9.7,13.4-5.5,20.7c2.8,4.8,7.9,7.6,13.1,7.6
			c2.6,0,5.2-0.6,7.6-2l78.6-45.4C385.7,408.6,388.2,399.4,384,392.1z"/>
	</g>
</g>
</svg>
