<?xml version="1.0" encoding="utf-8"?>
<!-- Generator: Adobe Illustrator 21.1.0, SVG Export Plug-In . SVG Version: 6.00 Build 0)  -->
<svg version="1.1" id="Capa_1" xmlns="http://www.w3.org/2000/svg" xmlns:xlink="http://www.w3.org/1999/xlink" x="0px" y="0px"
	 viewBox="0 0 512 512" style="enable-background:new 0 0 512 512;" xml:space="preserve">
<style type="text/css">
	.st0{fill:#FFFFFF;stroke:#BCBCBB;stroke-width:7;stroke-miterlimit:10;}
	.st1{fill:none;stroke:#67F2F9;stroke-width:7;stroke-miterlimit:10;}
</style>
<g>
	<g>
		<path class="st0" d="M403.1,151C389.1,81.6,328.3,31,256,31c-60,0-113.9,35.7-137.5,90C61.8,122.4,16,168.9,16,226
			c0,44.7,28.2,84.4,70.1,98.8c7.8,2.7,16.4-1.5,19.1-9.3c2.7-7.9-1.5-16.4-9.3-19C66,286.2,46,257.9,46,226c0-41.3,33.7-75,75-75
			c1.2,0,3.2,0,3.9,0.2c7.6,1.9,15.3-2.3,17.8-9.6C159.4,93.4,204.9,61,256,61c61.9,0,113.3,46.4,119.5,108c0.4,4.2,2.6,8,5.9,10.5
			c3.4,2.5,7.6,3.4,11.8,2.7c3.9-0.8,8.4-1.3,12.8-1.3c33.1,0,60,26.9,60,60s-26.9,60-60,60H301c-8.3,0-15,6.7-15,15s6.7,15,15,15
			h105c49.6,0,90-40.4,90-90C496,190.4,455.5,150,403.1,151z"/>
	</g>
</g>
<g>
	<g>
		<path class="st1" d="M196,226c-8.3,0-15,6.7-15,15v150c0,8.3,6.7,15,15,15s15-6.7,15-15V241C211,232.7,204.3,226,196,226z"/>
	</g>
</g>
<g>
	<g>
		<path class="st1" d="M268.5,340.5l-129.9-75c-7.2-4.2-16.4-1.7-20.5,5.5s-1.7,16.4,5.5,20.5l129.9,75c2.4,1.4,4.9,2,7.5,2
			c5.2,0,10.2-2.7,13-7.5C278.1,353.8,275.6,344.6,268.5,340.5z"/>
	</g>
</g>
<g>
	<g>
		<path class="st1" d="M273.9,271c-4.1-7.2-13.4-9.6-20.5-5.5l-129.9,75c-7.2,4.1-9.6,13.3-5.5,20.5c2.8,4.8,7.8,7.5,13,7.5
			c2.6,0,5.1-0.6,7.5-2l129.9-75C275.6,287.4,278.1,278.2,273.9,271z"/>
	</g>
</g>
<g>
	<g>
		<path class="st1" d="M361,361c-8.3,0-15,6.7-15,15v90c0,8.3,6.7,15,15,15s15-6.7,15-15v-90C376,367.7,369.3,361,361,361z"/>
	</g>
</g>
<g>
	<g>
		<path class="st1" d="M407.5,430.5l-77.9-45c-7.2-4.1-16.4-1.7-20.5,5.5c-4.2,7.2-1.7,16.4,5.5,20.5l77.9,45c2.4,1.4,4.9,2,7.5,2
			c5.2,0,10.2-2.7,13-7.5C417.1,443.8,414.7,434.6,407.5,430.5z"/>
	</g>
</g>
<g>
	<g>
		<path class="st1" d="M413,391c-4.1-7.2-13.3-9.7-20.5-5.5l-77.9,45c-7.2,4.1-9.7,13.3-5.5,20.5c2.8,4.8,7.8,7.5,13,7.5
			c2.6,0,5.1-0.6,7.5-2l77.9-45C414.7,407.4,417.1,398.2,413,391z"/>
	</g>
</g>
</svg>
