<?xml version="1.0" encoding="utf-8"?>
<!-- Generator: Adobe Illustrator 21.1.0, SVG Export Plug-In . SVG Version: 6.00 Build 0)  -->
<svg version="1.1" id="Capa_1" xmlns="http://www.w3.org/2000/svg" xmlns:xlink="http://www.w3.org/1999/xlink" x="0px" y="0px"
	 viewBox="0 0 339.3 339.3" style="enable-background:new 0 0 339.3 339.3;" xml:space="preserve">
<style type="text/css">
	.st0{fill:#FFFFFF;stroke:#929292;stroke-width:7;stroke-miterlimit:10;}
</style>
<g>
	<g>
		<path class="st0" d="M169.6,95.9c-40.8,0-79.2-3.1-108.1-8.7c-34-6.6-49.9-15.3-49.9-27.4s15.9-20.9,49.9-27.4
			c28.9-5.6,67.3-8.7,108.1-8.7s79.2,3.1,108.1,8.7c34,6.6,49.9,15.3,49.9,27.4s-15.9,20.9-49.9,27.4
			C248.8,92.8,210.4,95.9,169.6,95.9z M25.7,59.8c1.6,2.4,11.5,8.9,42.3,14.4c27.6,5,63.7,7.7,101.6,7.7s74-2.7,101.6-7.7
			c30.8-5.5,40.7-12,42.3-14.4c-1.6-2.4-11.5-8.9-42.3-14.4c-27.6-5-63.7-7.7-101.6-7.7s-74,2.7-101.6,7.7
			C37.2,50.9,27.3,57.4,25.7,59.8z"/>
	</g>
	<g>
		<path class="st0" d="M169.6,136c-35.9,0-69.6-2.7-95.1-7.6C44.2,122.5,30,114.6,30,103.4c0-3.9,3.1-7,7-7c3.7,0,6.7,2.9,7,6.5
			c1.4,2,10.3,7.7,37.6,12.5c24.1,4.2,55.3,6.5,88,6.5c38.2,0,74.3-3.2,99-8.7c3.8-0.8,7.5,1.5,8.3,5.3c0.8,3.8-1.5,7.5-5.3,8.3
			C246,132.7,208.8,136,169.6,136z"/>
	</g>
	<g>
		<path class="st0" d="M122.6,170.3c-0.2,0-0.4,0-0.6,0c-20.3-1.8-37.6-4.6-50-8.3c-10.2-3-23.8-8.2-23.8-18.8c0-3.9,3.1-7,7-7
			c3.6,0,6.6,2.7,6.9,6.2c2.3,2.7,17.4,10.2,61.2,14c3.8,0.3,6.7,3.7,6.4,7.6C129.3,167.6,126.2,170.3,122.6,170.3z"/>
	</g>
	<g>
		<path class="st0" d="M206.4,171.1c-3.7,0-6.7-2.8-7-6.5c-0.3-3.9,2.7-7.2,6.5-7.4c47.6-3.1,68.2-11.1,71.3-14.7
			c0.4-3.5,3.3-6.2,6.9-6.2c3.9,0,7,3.1,7,7c0,11.3-15.5,16.7-27.1,19.7c-14.5,3.8-34.2,6.6-57.2,8.1
			C206.7,171.1,206.5,171.1,206.4,171.1z"/>
	</g>
	<g>
		<path class="st0" d="M169.6,209.6c-27.3,0-53-2.1-72.4-5.8c-24.3-4.7-35.1-11-35.1-20.6c0-3.9,3.1-7,7-7c3.5,0,6.4,2.6,6.9,5.9
			c4.6,4.7,36.5,13.5,93.6,13.5c7.7,0,15.4-0.2,22.9-0.5c3.8-0.2,7.1,2.8,7.3,6.7c0.2,3.9-2.8,7.1-6.7,7.3
			C185.5,209.4,177.6,209.6,169.6,209.6z"/>
	</g>
	<g>
		<path class="st0" d="M248.7,202.1c-3.1,0-6-2.1-6.8-5.3c-0.9-3.7,1.4-7.5,5.1-8.4c11.7-2.9,15.3-5.5,16.2-6.3
			c0.5-3.3,3.4-5.9,6.9-5.9c3.9,0,7,3.1,7,7c0,10.9-15.3,15.9-26.8,18.8C249.8,202.1,249.3,202.1,248.7,202.1z"/>
	</g>
	<g>
		<path class="st0" d="M106.9,239.4c-0.5,0-1.1-0.1-1.6-0.2c-11-2.6-23.6-6.8-23.6-16.6c0-3.9,3.1-7,7-7c3.3,0,6,2.3,6.8,5.3
			c1,0.7,4.3,2.6,13,4.7c3.8,0.9,6.1,4.6,5.2,8.4C112.9,237.2,110,239.4,106.9,239.4z"/>
	</g>
	<g>
		<path class="st0" d="M168.7,245c-8.3,0-16.5-0.2-24.4-0.7c-3.9-0.2-6.8-3.5-6.6-7.4c0.2-3.9,3.5-6.8,7.4-6.6
			c7.6,0.5,15.5,0.7,23.6,0.7c18.6,0,36.6-1.3,50.6-3.6c16.1-2.6,21.3-5.6,22.6-6.6c0.8-3,3.5-5.3,6.8-5.3c3.9,0,7,3.1,7,7
			c0,10.8-15.6,15.2-29.1,17.8C211.1,243.4,190.5,245,168.7,245z"/>
	</g>
	<g>
		<path class="st0" d="M169.6,280.4c-16.9,0-32.9-1.3-45-3.6c-11-2.1-23.7-5.8-23.7-15.3c0-3.9,3.1-7,7-7c3.1,0,5.7,2,6.6,4.7
			c4.3,2.7,23.3,7.2,55.1,7.2s50.8-4.5,55.1-7.2c0.9-2.7,3.5-4.7,6.6-4.7c3.9,0,7,3.1,7,7c0,9.5-12.7,13.1-23.7,15.3
			C202.5,279.1,186.6,280.4,169.6,280.4z"/>
	</g>
	<g>
		<path class="st0" d="M169.6,315.6c-11.1,0-21.6-0.8-29.6-2.4c-5.2-1-17.4-3.4-17.4-12.3c0-3.9,3.1-7,7-7c2.7,0,5,1.5,6.2,3.7
			c3.5,1.6,15.5,4,33.8,4s30.3-2.4,33.8-4c1.2-2.2,3.5-3.7,6.2-3.7c3.9,0,7,3.1,7,7c0,9-12.2,11.3-17.4,12.3
			C191.3,314.7,180.8,315.6,169.6,315.6z"/>
	</g>
</g>
</svg>
