<?xml version="1.0" encoding="utf-8"?>
<!-- Generator: Adobe Illustrator 21.1.0, SVG Export Plug-In . SVG Version: 6.00 Build 0)  -->
<svg version="1.1" id="Layer_1" xmlns="http://www.w3.org/2000/svg" xmlns:xlink="http://www.w3.org/1999/xlink" x="0px" y="0px"
	 viewBox="0 0 50.4 43.2" style="enable-background:new 0 0 50.4 43.2;" xml:space="preserve">
<style type="text/css">
	.st0{fill:#FFFFFF;stroke:#FFB83B;stroke-width:0.75;stroke-miterlimit:10;}
	.st1{fill:#FFFFFF;stroke:#BCBCBB;stroke-width:0.75;stroke-miterlimit:10;}
</style>
<g>
	<path class="st0" d="M0.7,31.7c0,1.6,0.4,3.2,1.2,4.5c0.8,1.4,1.9,2.5,3.3,3.3c1.4,0.8,2.9,1.2,4.5,1.2h19.8c1.6,0,3.1-0.4,4.5-1.2
		c1.4-0.8,2.5-1.9,3.3-3.3c0.8-1.4,1.2-2.9,1.2-4.5c0-1.2-0.3-2.4-0.8-3.7c1.4-1.7,2.1-3.7,2.1-6c0-1.3-0.3-2.5-0.7-3.7
		c-0.5-1.2-1.2-2.2-2-3c-0.9-0.9-1.9-1.6-3-2c-1.2-0.5-2.4-0.7-3.7-0.7c-2.7,0-5.1,1.1-7.1,3.2c-1.4-0.8-3-1.2-4.9-1.2
		c-2.6,0-4.8,0.8-6.8,2.4c-2,1.6-3.3,3.6-3.8,6.1c-2,0.5-3.7,1.5-5,3.2C1.3,27.7,0.7,29.6,0.7,31.7z M3.8,31.7c0-1.5,0.5-2.8,1.5-4
		c1-1.1,2.3-1.8,3.8-1.9l0.9-0.1c0.2,0,0.3-0.1,0.3-0.3l0.1-1c0.3-2,1.1-3.6,2.6-4.9c1.5-1.3,3.2-2,5.1-2c2,0,3.8,0.7,5.2,2
		c1.5,1.3,2.3,3,2.5,4.9l0.1,1.1c0,0.2,0.2,0.3,0.4,0.3h2.9c1.6,0,3,0.6,4.2,1.8c1.2,1.2,1.8,2.5,1.8,4.1c0,1.7-0.6,3.1-1.7,4.2
		c-1.2,1.2-2.6,1.8-4.2,1.8H9.7c-1.6,0-3-0.6-4.1-1.8C4.4,34.7,3.8,33.3,3.8,31.7z M16,9.3c0,0.4,0.1,0.8,0.4,1.2l1.2,1.2
		c0.5,0.3,0.8,0.5,1.2,0.5c0.4,0,0.7-0.2,1-0.5c0.3-0.3,0.4-0.7,0.4-1.1s-0.2-0.8-0.5-1.1l-1.1-1.2c-0.3-0.3-0.7-0.4-1.1-0.4
		c-0.4,0-0.8,0.1-1.1,0.5C16.2,8.5,16,8.8,16,9.3z M25.8,17.4c1.3-1.2,2.8-1.8,4.5-1.8c1.8,0,3.3,0.6,4.6,1.9
		c1.3,1.3,1.9,2.8,1.9,4.6c0,1.1-0.3,2.3-0.9,3.4c-1.8-1.8-3.9-2.6-6.4-2.6h-0.6C28.4,20.7,27.4,19,25.8,17.4z M28.7,7.7
		c0,0.5,0.1,0.8,0.4,1.1s0.6,0.4,1.1,0.4c0.5,0,0.8-0.1,1.1-0.4c0.3-0.3,0.4-0.7,0.4-1.1V4c0-0.4-0.1-0.8-0.4-1.1
		c-0.3-0.3-0.7-0.4-1.1-0.4c-0.4,0-0.8,0.1-1.1,0.4S28.7,3.5,28.7,4V7.7z M38.8,11.9c0,0.5,0.1,0.8,0.4,1.1c0.4,0.3,0.8,0.4,1.1,0.4
		c0.3,0,0.7-0.1,1.1-0.4l2.6-2.6c0.3-0.3,0.4-0.7,0.4-1.2c0-0.4-0.1-0.8-0.4-1.1c-0.3-0.3-0.7-0.4-1.1-0.4c-0.4,0-0.8,0.1-1.1,0.4
		l-2.7,2.6C38.9,11.1,38.8,11.5,38.8,11.9z M40.3,33.5c0,0.4,0.1,0.8,0.5,1.2l1.2,1.2c0.3,0.3,0.6,0.4,1.1,0.4s0.8-0.1,1.1-0.5
		s0.4-0.7,0.4-1.1c0-0.4-0.1-0.8-0.4-1.1l-1.2-1.2c-0.3-0.3-0.6-0.4-1-0.4c-0.4,0-0.8,0.1-1.1,0.4C40.4,32.7,40.3,33.1,40.3,33.5z
		 M42.9,22c0,0.4,0.2,0.8,0.5,1.1c0.3,0.3,0.7,0.4,1.1,0.4h3.7c0.4,0,0.8-0.1,1.1-0.4c0.3-0.3,0.4-0.6,0.4-1.1s-0.1-0.8-0.4-1.1
		c-0.3-0.3-0.6-0.5-1.1-0.5h-3.7c-0.4,0-0.8,0.1-1.1,0.5C43.1,21.2,42.9,21.6,42.9,22z"/>
	<path class="st1" d="M29,23c-1.1-4.9-5.5-8.4-10.6-8.5c-5.1,0-9.6,3.5-10.8,8.5c-4.1,1-6.9,4.6-7,8.7c-0.1,4.2,2.8,7.9,7,9
		c7.1,0,14.2,0,21.4,0c5.3,0.3,9.7-3.9,9.7-9C38.6,26.8,34.2,22.7,29,23z M29.6,37.7c-6.4,0-12.8,0-19.2,0c-3.6,0.3-6.6-2.6-6.6-6
		c0-3.4,3.1-6.2,6.6-5.9c0.1,0,0.1,0,0.2,0c0.2-1.1,0.7-3.7,2.8-5.7c2.1-1.9,4.3-2,5-2c0.6,0,3.2,0.1,5.4,2.6
		c1.7,1.9,2.1,4.1,2.3,5.1c1.2,0,2.3,0,3.5,0c3.3,0,5.9,2.7,6,5.8C35.5,34.9,32.9,37.6,29.6,37.7z"/>
</g>
</svg>
