<?xml version="1.0" encoding="utf-8"?>
<!-- Generator: Adobe Illustrator 21.1.0, SVG Export Plug-In . SVG Version: 6.00 Build 0)  -->
<svg version="1.1" id="Layer_1" xmlns="http://www.w3.org/2000/svg" xmlns:xlink="http://www.w3.org/1999/xlink" x="0px" y="0px"
	 viewBox="0 0 30 30" style="enable-background:new 0 0 30 30;" xml:space="preserve">
<style type="text/css">
	.st0{fill:#FFFFFF;stroke:#BAF1F7;stroke-width:0.75;stroke-miterlimit:10;}
	.st1{fill:#FFFFFF;stroke:#BCBCBB;stroke-width:0.75;stroke-miterlimit:10;}
</style>
<path class="st0" d="M2.5,18.8c0-1.3,0.4-2.5,1.2-3.5s1.9-1.7,3.1-2c0.3-1.2,0.8-2.2,1.6-3.1s1.8-1.5,2.9-1.9
	c0.7-0.2,1.4-0.4,2.2-0.4c0.9,0,1.8,0.2,2.7,0.6c0.3-0.5,0.7-1,1.1-1.4c0.4-0.4,0.9-0.7,1.3-0.9c0.5-0.2,0.9-0.4,1.4-0.5
	c0.4-0.1,0.9-0.1,1.3-0.1c0.4,0,0.9,0.1,1.4,0.2L23.8,6c0.2,0.1,0.2,0.1,0.2,0.3L23.8,7c-0.1,0.4-0.1,0.7-0.1,1
	c0,0.4,0.1,0.7,0.2,1.1c0.1,0.4,0.3,0.7,0.5,1.1c0.2,0.4,0.5,0.7,0.9,1c0.4,0.3,0.8,0.5,1.3,0.7l0.7,0.3c0.1,0,0.2,0.1,0.2,0.2
	c0,0,0,0,0,0.1L27.2,13c-0.3,1.2-0.9,2.2-1.7,2.9c0.5,0.8,0.7,1.7,0.7,2.6c0,0.1,0,0.1,0,0.3c0,1-0.3,2-0.8,2.8
	c-0.5,0.9-1.2,1.6-2.1,2.1c-0.9,0.5-1.8,0.8-2.8,0.8H8.2c-1,0-2-0.3-2.8-0.8c-0.9-0.5-1.5-1.2-2.1-2.1S2.5,19.8,2.5,18.8z M4.5,18.8
	c0,1,0.4,1.9,1.1,2.7s1.6,1.1,2.6,1.1h12.4c1,0,1.9-0.4,2.6-1.1s1.1-1.6,1.1-2.7c0-1-0.4-1.9-1.1-2.6c-0.7-0.7-1.6-1.1-2.6-1.1h-2
	l-0.1-0.9c-0.1-1.2-0.6-2.2-1.4-3c-0.8-0.8-1.9-1.3-3-1.4c0,0-0.1,0-0.2,0c-0.1,0-0.1,0-0.2,0c-0.6,0-1.2,0.1-1.8,0.3v0
	c-0.8,0.3-1.5,0.8-2.1,1.6c-0.6,0.7-0.9,1.5-1,2.5l-0.1,0.8l-0.8,0c-1,0.1-1.8,0.5-2.4,1.2C4.8,17,4.5,17.8,4.5,18.8z M18,9.5
	c1.2,1,2,2.3,2.3,3.6h0.4c1.4,0,2.6,0.4,3.6,1.4c0.4-0.4,0.7-0.8,0.9-1.2c-1-0.5-1.9-1.3-2.5-2.3c-0.6-1-0.9-2.1-0.9-3.2V7.5
	c-0.1,0-0.1,0-0.3,0c-0.7,0-1.3,0.1-2,0.5C18.9,8.4,18.4,8.8,18,9.5z"/>
<path class="st1" d="M20.2,13.3c-0.7-3.1-3.5-5.3-6.6-5.4c-3.2,0-6,2.2-6.7,5.4c-2.5,0.6-4.3,2.9-4.4,5.5c0,2.6,1.8,5,4.4,5.7
	c4.4,0,8.9,0,13.3,0c3.3,0.2,6.1-2.5,6-5.7C26.2,15.6,23.5,13.1,20.2,13.3z M20.6,22.5c-4,0-8,0-12,0c-2.2,0.2-4.1-1.6-4.1-3.8
	c0-2.1,1.9-3.9,4.1-3.7c0,0,0.1,0,0.1,0c0.1-0.7,0.5-2.3,1.8-3.6c1.3-1.2,2.7-1.3,3.1-1.3c0.4,0,2,0.1,3.4,1.6
	c1,1.2,1.3,2.6,1.4,3.2c0.7,0,1.5,0,2.2,0c2,0,3.7,1.7,3.7,3.7C24.3,20.8,22.7,22.5,20.6,22.5z"/>
</svg>
