<?xml version="1.0" encoding="utf-8"?>
<!-- Generator: Adobe Illustrator 21.1.0, SVG Export Plug-In . SVG Version: 6.00 Build 0)  -->
<svg version="1.1" id="Capa_1" xmlns="http://www.w3.org/2000/svg" xmlns:xlink="http://www.w3.org/1999/xlink" x="0px" y="0px"
	 viewBox="0 0 45.9 45.9" style="enable-background:new 0 0 45.9 45.9;" xml:space="preserve">
<style type="text/css">
	.st0{fill:#FFFFFF;stroke:#C9C9C9;stroke-width:0.75;stroke-miterlimit:10;}
</style>
<g>
	<g>
		<path class="st0" d="M38.7,16.8c0-3.5-2.8-6.3-6.3-6.3c-3.5,0-6.3,2.8-6.3,6.3c0,1,0.8,1.8,1.8,1.8c1,0,1.8-0.8,1.8-1.8
			c0-1.5,1.2-2.7,2.7-2.7s2.7,1.2,2.7,2.7c0,2-1.6,3.6-3.6,3.6H3.6c-1,0-1.8,0.8-1.8,1.8c0,1,0.8,1.8,1.8,1.8h27.9
			C35.5,24,38.7,20.8,38.7,16.8z"/>
		<path class="st0" d="M3.1,16.7h10c3.4,0,6.1-2.8,6.1-6.1c0-2.9-2.4-5.3-5.3-5.3s-5.3,2.4-5.3,5.3c0,0.7,0.6,1.4,1.4,1.4
			c0.7,0,1.4-0.6,1.4-1.4c0-1.5,1.2-2.6,2.6-2.6s2.6,1.2,2.6,2.6c0,1.9-1.5,3.4-3.4,3.4h-10c-0.7,0-1.4,0.6-1.4,1.4
			S2.4,16.7,3.1,16.7z"/>
		<path class="st0" d="M36.9,27.1H10.8C9.8,27.1,9,28,9,29c0,1,0.8,1.8,1.8,1.8h26.1c2,0,3.6,1.6,3.6,3.6c0,1.5-1.2,2.7-2.7,2.7
			c-1.5,0-2.7-1.2-2.7-2.7c0-1-0.8-1.8-1.8-1.8s-1.8,0.8-1.8,1.8c0,3.5,2.8,6.3,6.3,6.3c3.5,0,6.3-2.8,6.3-6.3
			C44.1,30.4,40.9,27.1,36.9,27.1z"/>
	</g>
</g>
</svg>
